<!DOCTYPE svg PUBLIC "-//W3C//DTD SVG 1.1//EN" "http://www.w3.org/Graphics/SVG/1.1/DTD/svg11.dtd">
<svg xmlns="http://www.w3.org/2000/svg" viewBox="0 0 836 490">
<path d="M188.684 91.449c-8.966 3.198-13.604 13.675-9.399 21.234 3.275 5.886 68.612 89.329 71.215 90.95 3.701 2.303 43.395 3.361 52.81 1.406 10.189-2.115 15.694-13.022 10.898-21.591-.939-1.678-16.519-22.72-34.621-46.76L246.673 92.98l-5.018-1.49c-6.84-2.031-47.303-2.063-52.971-.041m224 0c-5.189 1.85-6.075 2.763-18.897 19.459C294.192 240.597 171.352 402.292 170.364 405c-2.434 6.674.881 15.465 6.91 18.326 6.249 2.965 55.246 2.469 59.828-.606 2.017-1.353 19.859-24.087 43.898-55.931 22.275-29.508 41.85-55.303 43.5-57.321l3-3.67 43.978 58.193c26.345 34.861 45.069 58.758 46.7 59.601 2.142 1.108 8.439 1.408 29.54 1.408h26.818l3.639-2.473c4.459-3.03 7.369-9.79 6.505-15.114-.697-4.293 3.785 1.722-62.491-83.845-29.365-37.913-53.58-69.425-53.811-70.026-.231-.601 23.659-32.356 53.088-70.567 36.97-48.002 53.846-70.68 54.6-73.374 2.105-7.521-3.451-16.225-11.847-18.557-5.724-1.59-46.849-1.267-51.535.405m157.324.753c-2.47 1.264-5.508 3.827-6.75 5.696L561 101.296v92.408l2.25 3.306c5.028 7.387 5.433 7.49 29.573 7.49 34.492 0 32.177 4.101 32.177-57 0-51.017.074-50.424-6.856-54.734-5.752-3.577-41.429-3.994-48.136-.564m-.831 133.481c-1.827.9-4.415 3.245-5.75 5.209L561 234.464v88.382c0 110.822-3.586 99.654 32 99.654 24.202 0 26.431-.554 30.137-7.484 1.777-3.324 1.863-7.562 1.859-92-.004-99.278.517-92.294-7.237-97.021-4.51-2.75-43.131-2.998-48.582-.312" fill-rule="evenodd"/>
</svg>