<!DOCTYPE svg PUBLIC "-//W3C//DTD SVG 1.1//EN" "http://www.w3.org/Graphics/SVG/1.1/DTD/svg11.dtd">
<svg xmlns="http://www.w3.org/2000/svg" viewBox="0 0 300 292">
<path fill="#fbfbfb" stroke="#fbfbfb" d="M127.628 1.508C54.341 13.445 2.556 71.807.307 145c-1.213 39.502 10.146 72.114 35.735 102.594C57.97 273.713 102.242 298.758 111 290c2.834-2.834 3.135-34.649.317-33.568-4.422 1.697-19.943 1.792-26.284.161-12.244-3.148-17.634-7.994-24.433-21.966-3.767-7.742-8.753-13.634-17.077-20.181-4.778-3.759-4.067-5.449 2.286-5.436 8.757.018 18.24 6.382 24.058 16.143 2.865 4.809 9.344 10.585 14.496 12.925 7.239 3.287 27.928 1.593 29.091-2.382.193-.658.922-3.4 1.62-6.094.698-2.694 2.767-6.86 4.597-9.259 4.149-5.435 4.346-4.948-2.32-5.732-38.821-4.562-59.895-26.85-62.039-65.611-.969-17.506 2.302-29.764 11.272-42.25 3.161-4.4 3.387-5.162 2.523-8.541-2.518-9.854-2.146-20.508 1.099-31.459 1.053-3.554 1.328-3.75 5.271-3.75 7.522 0 20.976 5.211 32.919 12.75 3.665 2.314 4.385 2.433 8.553 1.42 18.152-4.414 41.774-4.931 59.613-1.304l11.061 2.249 7.352-4.532c10.419-6.424 20.21-10.014 27.413-10.052l5.888-.031 1.465 4c2.073 5.662 2.817 22.427 1.297 29.221-1.148 5.132-1.087 5.724.846 8.156 9.041 11.375 12.591 22.461 12.528 39.123-.156 41.669-21.014 65.433-61.913 70.543-6.46.808-6.279.397-2.489 5.629 5.812 8.024 6.367 11.557 6.432 40.97.066 30.345.194 30.858 7.69 30.858 12.529 0 43.723-18.116 61.362-35.637 23.816-23.656 43.418-64.201 43.521-90.02.012-2.85.266-3.455.985-2.343.646.999.941-4.012.885-15-.05-9.801-.409-15.485-.885-14-.723 2.259-.81 2.148-.9-1.14-.164-5.979-3.069-19.731-6.307-29.86-16.408-51.315-59.12-89.541-113.011-101.141C167.334.18 140.113-.526 127.628 1.508M.407 150c0 9.075.152 12.787.337 8.25.185-4.537.185-11.963 0-16.5-.185-4.537-.337-.825-.337 8.25M52.5 213c-.897 1.451.339 3 2.392 3 2.485 0 3.288-1.079 1.977-2.658-1.314-1.583-3.496-1.754-4.369-.342m6.5 5.804c0 2.765 2.716 4.88 4.27 3.326.866-.866.893-1.649.1-2.908-1.59-2.525-4.37-2.791-4.37-.418m5.513 7.175c-.333.539-.119 1.889.476 3 1.364 2.549 5.011 2.71 5.011.221 0-3.252-4.013-5.607-5.487-3.221m6.834 8.558c-.673 1.754 2.273 5.463 4.339 5.463 2.241 0 2.694-2.923.78-5.037-2.129-2.353-4.309-2.534-5.119-.426m10.126 6.507c-.978 1.583 1.476 3.956 4.09 3.956 2.89 0 3.992-1.626 2.401-3.544-1.397-1.683-5.543-1.946-6.491-.412m24.578.395c-1.619 1.951-.66 4.566 1.668 4.546 2.776-.024 4.512-1.544 4.119-3.605-.453-2.375-4.104-2.969-5.787-.941m-12.364 1.934c-.765 1.993 1.668 3.856 4.508 3.454 1.529-.217 2.305-1 2.305-2.327 0-2.521-5.903-3.497-6.813-1.127" fill-rule="evenodd"/>
<path fill="#eeeded" stroke="#eeeded" d="M134.009 1.021C40.299 10.79-20.854 104.185 6.995 195c12.401 40.44 44.365 75.497 84.505 92.68 19.055 8.157 21.5 6.386 21.5-15.575V257.48l-14.25.01c-21.852.015-28.743-3.921-37.859-21.628-4.76-9.247-8.054-13.133-18.252-21.536-3.348-2.759-3.333-4.112.062-5.402 7.315-2.782 18.907 3.757 26.78 15.105 8.479 12.221 17.016 16.697 29.83 15.639 10.001-.825 13.749-3.021 15.203-8.904.643-2.605 2.583-7.01 4.31-9.788 2.099-3.377 2.732-5.169 1.908-5.404-.677-.194-4.382-.868-8.232-1.499-37.048-6.072-55.836-27.933-57.213-66.573-.685-19.247 1.902-28.734 11.136-40.832l3.555-4.656-1.489-5.716c-2.553-9.801-.964-27.529 2.946-32.876 2.576-3.523 17.58.813 32.585 9.417l8.497 4.872 8.992-2.002c13.042-2.904 44.068-2.855 56.991.09l9 2.052 4.5-2.853c12.123-7.686 30.853-14.418 35.332-12.699 3.862 1.482 6.55 21.882 4.29 32.555l-1.557 7.353 3.455 4.525c7.663 10.036 11.446 22.177 11.458 36.77.032 40.366-19.711 64.374-57.978 70.504-10.831 1.735-10.511 1.476-7.095 5.736 5.947 7.415 6.396 10.04 7.023 41.093.536 26.53.695 28.422 2.513 29.75 7.609 5.555 41.244-11.4 63.006-31.761 26.903-25.171 46.186-65.373 46.623-97.203.052-3.782.295-4.597.93-3.119.539 1.254.837-2.477.798-10-.04-7.786-.32-10.771-.798-8.5-.659 3.131-.751 2.898-.868-2.199-.073-3.135-1.05-10.454-2.171-16.266C282.323 45.681 211.074-7.012 134.009 1.021M.382 149.5c.002 6.6.164 9.17.359 5.711.196-3.459.195-8.859-.003-12S.38 142.9.382 149.5m52.789 64.148c.193 1.006 1.175 1.988 2.181 2.181 1.321.255 1.732-.156 1.477-1.477-.193-1.006-1.175-1.988-2.181-2.181-1.321-.255-1.732.156-1.477 1.477m6.158 4.936c-.327.853-.115 2.03.471 2.616 1.463 1.463 4.297.218 3.606-1.585-.831-2.164-3.393-2.813-4.077-1.031m5.671 8.22c0 2.765 2.716 4.88 4.27 3.326.866-.866.893-1.649.1-2.908-1.59-2.525-4.37-2.791-4.37-.418m7 9.227c0 2.258 2.177 3.499 4.543 2.591 1.214-.466 1.313-1.022.465-2.607-1.442-2.694-5.008-2.683-5.008.016m10.38 5.421c-.826 2.153.424 3.548 3.179 3.548 1.728 0 2.441-.553 2.441-1.893 0-2.925-4.612-4.283-5.62-1.655m23.062.642c-1.185 1.917 2.431 4.044 4.757 2.8 1.057-.566 1.748-1.561 1.535-2.212-.533-1.624-5.372-2.076-6.292-.588m-11.062 1.358c-.761 1.984.366 3.548 2.557 3.548 2.611 0 4.338-2.325 2.839-3.824-1.631-1.631-4.725-1.472-5.396.276" fill-rule="evenodd"/>
<path fill="#686562" stroke="#686562" d="M137.45 1.03C77.027 6.005 24.918 47.782 7.127 105.515c-21.553 69.941 10.302 145.012 75.321 177.509 19.81 9.901 26.216 10.987 29.266 4.959 1.07-2.114 2.01-30.983 1.01-30.983-.152 0-3.958.462-8.458 1.026-21.035 2.637-35.017-4.311-43.313-21.526-4.595-9.534-8.34-14.245-15.573-19.588-7.328-5.414-7.123-8.912.524-8.912 7.983 0 18.673 7.01 23.656 15.512 6.333 10.806 15.036 15.91 26.94 15.799 12.634-.118 15.362-1.562 17.931-9.49 1.166-3.599 3.369-8.181 4.895-10.182 1.527-2.002 2.587-3.639 2.356-3.639-7.875 0-28.735-6.262-37.647-11.302-29.356-16.602-39.48-66.234-19.52-95.698l5.081-7.5-1.365-4.5c-1.743-5.751-1.065-22.475 1.207-29.75 1.606-5.142 1.719-5.25 5.495-5.25 7.568 0 26.519 7.635 35.491 14.298 1.619 1.203 2.691 1.227 6.77.151 15.217-4.014 43.964-4.459 61.404-.95l9.098 1.831 6.089-3.699c12.219-7.423 26.051-12.353 32.215-11.484 5.294.747 8.701 20.978 5.692 33.794l-1.513 6.441 3.293 4.059c10.433 12.863 14.283 34.067 10.116 55.721-6.129 31.856-23.081 46.171-63.309 53.459-2.213.401-2.21.419.785 5.141 5.421 8.545 5.936 12.057 5.936 40.465v25.864l2.571 2.571c3.302 3.302 6.986 2.809 19.587-2.624 44.796-19.313 77.118-59.208 87.53-108.038 2.585-12.125 2.585-45.875 0-58C282.352 53.767 228.902 6.65 160.5.949c-6.05-.504-11.675-.86-12.5-.79l-10.55.871M53 213.893c0 1.104 2.595 2.179 3.375 1.399.314-.314.331-.958.039-1.431-.702-1.136-3.414-1.111-3.414.032m6.354 5.587c.355.926.646 1.872.646 2.102 0 .23.708.418 1.573.418 2.225 0 1.359-3.389-.98-3.84-1.419-.273-1.725.054-1.239 1.32m6.02 6.989c-.303.789-.26 1.907.096 2.483 1.085 1.755 3.53 1.169 3.53-.845 0-2.33-2.864-3.624-3.626-1.638M72 235.23c0 1.761 2.009 3.77 3.77 3.77 2.4 0 .993-4.463-1.52-4.82-1.394-.197-2.25.202-2.25 1.05m10.323 6.371c-.979 2.552 3.758 4.695 5.204 2.355.813-1.316-1.31-3.956-3.181-3.956-.775 0-1.685.72-2.023 1.601m23.808.741c-1.384 1.668-.48 2.658 2.429 2.658 2.163 0 3.91-2.197 2.704-3.402-1.06-1.061-3.987-.636-5.133.744m-10.881.32c-1.726.697-1.57 3.001.25 3.7 2.003.768 4.5-.265 4.5-1.862 0-1.005-2.491-2.815-3.332-2.421-.092.043-.73.306-1.418.583" fill-rule="evenodd"/>
<path fill="#241c1c" stroke="#241c1c" d="M133 1.625C68.223 9.798 18.092 55.395 3.824 119.119.694 133.101.443 165.593 3.362 179 13.429 225.236 41.992 262.547 83 283.03c26.667 13.32 29 12.479 29-10.45v-15.277l-5.75.938c-21.588 3.523-36.76-3.662-45.603-21.599-4.558-9.245-6.726-11.905-17.647-21.65-4.331-3.865-4.427-4.072-2.559-5.504 7.478-5.732 20.541 1.619 32.858 18.491 5.173 7.085 11.23 10.267 20.574 10.808 9.82.568 19.127-1.765 19.127-4.795 0-3.117 3.036-10.187 6.04-14.063l2.767-3.571-7.636-1.283C75.865 208.638 56.424 187.178 54.312 149c-.971-17.549 2.298-29.759 11.337-42.341 3.505-4.879 3.525-4.964 2.207-9.541-1.813-6.296-1.403-20.215.829-28.118l1.835-6.5 4.809-.308c7.018-.449 24.221 6.145 33.927 13.005 2.632 1.86 3.087 1.878 10.169.414 20.823-4.306 41.228-4.309 60.821-.008l7.254 1.593 7.34-4.528c10.275-6.338 19.426-9.826 27.344-10.423l6.685-.504 1.815 5.879c2.142 6.934 2.583 28.562.65 31.848-.967 1.644-.705 2.547 1.6 5.5 9.529 12.211 12.497 21.696 12.367 39.532-.294 40.329-18.818 62.932-57.428 70.076l-9.627 1.781 2.887 3.985c5.667 7.824 6.237 11.507 6.305 40.751.048 20.473.366 26.96 1.381 28.186 2.448 2.955 6.302 2.901 14.33-.199 47.49-18.338 82.22-59.175 93.032-109.392 2.959-13.744 3.206-43.541.474-57.152C284.561 62.293 240.922 17.745 180.5 3.959 171.663 1.943 142.025.487 133 1.625M53.5 214c.34.55 1.293 1 2.118 1s1.222-.45.882-1c-.34-.55-1.293-1-2.118-1s-1.222.45-.882 1m6.07 4.887c-.653 1.057 2.213 3.663 3.078 2.799.833-.834-.372-3.686-1.558-3.686-.534 0-1.219.399-1.52.887m5.784 8.593c.355.926.646 1.872.646 2.102 0 .23.708.418 1.573.418 2.225 0 1.359-3.389-.98-3.84-1.419-.273-1.725.054-1.239 1.32m7.119 7.564c-.807 1.305 1.304 3.956 3.149 3.956 1.697 0 1.799-2.179.178-3.8-1.476-1.476-2.482-1.523-3.327-.156M82 241.965c0 1.52 3.469 2.981 4.932 2.077.728-.45 1.015-1.319.637-1.93-.842-1.363-5.569-1.487-5.569-.147m24.667-.298c-1.542 1.541-.584 3.46 1.573 3.153 2.831-.404 3.725-3.82 1-3.82-1.049 0-2.207.3-2.573.667m-12.171 2.34c-.783 1.266 2.001 2.4 4.004 1.631.825-.316 1.5-1.039 1.5-1.607 0-1.328-4.685-1.349-5.504-.024" fill-rule="evenodd"/>
</svg>